<?xml version="1.0" encoding="utf-8"?>
<!-- Generator: Adobe Illustrator 21.1.0, SVG Export Plug-In . SVG Version: 6.00 Build 0)  -->
<svg version="1.1" id="svg" xmlns="http://www.w3.org/2000/svg" xmlns:xlink="http://www.w3.org/1999/xlink" x="0px" y="0px"
	 viewBox="0 0 250 250" style="enable-background:new 0 0 250 250;" xml:space="preserve">
<style type="text/css">
	.st0{fill:#FFFFFF;stroke:#000000;stroke-miterlimit:10;}
	.st1{fill:none;}
</style>
<polygon class="st0" points="199.5,172.2 215.8,172.2 179.1,115.9 195.4,115.9 125,7.9 54.7,115.9 71,115.9 34.3,172.2 50.5,172.2 
	11.6,231.9 32.9,231.9 32.9,246.1 54.1,246.1 195.9,246.1 217.1,246.1 217.1,231.9 238.4,231.9 "/>
<g>
	<g>
		<g>
			<rect x="195.6" y="181.1" class="st1" width="5.3" height="5.3"/>
			<circle cx="198.2" cy="183.7" r="2.6"/>
		</g>
		<g>
			<rect x="190.7" y="191.1" class="st1" width="5.7" height="5.7"/>
			<circle cx="193.5" cy="193.9" r="2.8"/>
		</g>
		<g>
			<rect x="178.6" y="195.1" class="st1" width="5.2" height="5.2"/>
			<circle cx="181.3" cy="197.7" r="2.6"/>
		</g>
		<g>
			<rect x="169.6" y="202.4" class="st1" width="5.6" height="5.6"/>
			<circle cx="172.4" cy="205.1" r="2.8"/>
		</g>
		<g>
			<rect x="161.1" y="201.3" class="st1" width="5.5" height="5.5"/>
			<circle cx="163.8" cy="204" r="2.7"/>
		</g>
		<g>
			<rect x="151.3" y="204.5" class="st1" width="5.6" height="5.6"/>
			<circle cx="154.1" cy="207.3" r="2.8"/>
		</g>
		<g>
			<rect x="138.6" y="205.1" class="st1" width="5.4" height="5.4"/>
			<circle cx="141.3" cy="207.8" r="2.7"/>
		</g>
		<g>
			<rect x="131.5" y="204.7" class="st1" width="5" height="5"/>
			<circle cx="134" cy="207.2" r="2.5"/>
		</g>
		<g>
			<rect x="125.4" y="212.4" class="st1" width="5.2" height="5.2"/>
			<circle cx="128" cy="215" r="2.6"/>
		</g>
		<g>
			<rect x="115.5" y="208.1" class="st1" width="5.2" height="5.2"/>
			<circle cx="118.1" cy="210.7" r="2.6"/>
		</g>
		<g>
			<rect x="109" y="207" class="st1" width="5.1" height="5.1"/>
			<circle cx="111.6" cy="209.6" r="2.6"/>
		</g>
		<g>
			<rect x="102.5" y="212" class="st1" width="5.2" height="5.2"/>
			<circle cx="105.1" cy="214.6" r="2.6"/>
		</g>
		<g>
			<rect x="95" y="206.1" class="st1" width="5.4" height="5.4"/>
			<circle cx="97.8" cy="208.8" r="2.7"/>
		</g>
		<g>
			<rect x="84.7" y="214.7" class="st1" width="5.1" height="5.1"/>
			<circle cx="87.2" cy="217.2" r="2.5"/>
		</g>
		<g>
			<rect x="76.3" y="209.4" class="st1" width="5.4" height="5.4"/>
			<circle cx="79" cy="212.1" r="2.7"/>
		</g>
		<g>
			<rect x="64.1" y="213.6" class="st1" width="4.9" height="4.9"/>
			<circle cx="66.6" cy="216.1" r="2.4"/>
		</g>
		<g>
			<rect x="54.2" y="212.6" class="st1" width="5" height="5"/>
			<circle cx="56.7" cy="215.1" r="2.5"/>
		</g>
		<g>
			<rect x="44.2" y="204.7" class="st1" width="5" height="5"/>
			<circle cx="46.7" cy="207.2" r="2.5"/>
		</g>
		<g>
			<rect x="35.2" y="210.9" class="st1" width="5.4" height="5.4"/>
			<circle cx="37.9" cy="213.6" r="2.7"/>
		</g>
		<g>
			<rect x="24.4" y="207.7" class="st1" width="4.9" height="4.9"/>
			<circle cx="26.9" cy="210.2" r="2.5"/>
		</g>
	</g>
</g>
<g>
	<g>
		<g>
			<rect x="185.5" y="135.5" class="st1" width="5.5" height="5.5"/>
			<circle cx="188.2" cy="138.3" r="2.7"/>
		</g>
		<g>
			<rect x="177" y="134.4" class="st1" width="5.7" height="5.7"/>
			<circle cx="179.8" cy="137.3" r="2.8"/>
		</g>
		<g>
			<rect x="168.4" y="144.7" class="st1" width="5" height="5"/>
			<circle cx="170.8" cy="147.2" r="2.5"/>
		</g>
		<g>
			<rect x="159.1" y="143.3" class="st1" width="5.5" height="5.5"/>
			<circle cx="161.9" cy="146.1" r="2.8"/>
		</g>
		<g>
			<rect x="149" y="150.1" class="st1" width="4.9" height="4.9"/>
			<circle cx="151.5" cy="152.5" r="2.5"/>
		</g>
		<g>
			<rect x="142.5" y="151.5" class="st1" width="5.3" height="5.3"/>
			<circle cx="145.1" cy="154.1" r="2.7"/>
		</g>
		<g>
			<rect x="130.2" y="151.2" class="st1" width="5.5" height="5.5"/>
			<circle cx="133" cy="154" r="2.8"/>
		</g>
		<g>
			<rect x="121.1" y="156.5" class="st1" width="5.5" height="5.5"/>
			<circle cx="123.9" cy="159.2" r="2.7"/>
		</g>
		<g>
			<rect x="110.6" y="153.1" class="st1" width="5.4" height="5.4"/>
			<circle cx="113.3" cy="155.8" r="2.7"/>
		</g>
		<g>
			<rect x="98.1" y="156.4" class="st1" width="5.6" height="5.6"/>
			<circle cx="100.9" cy="159.2" r="2.8"/>
		</g>
		<g>
			<rect x="91.4" y="148.2" class="st1" width="5.1" height="5.1"/>
			<circle cx="94" cy="150.8" r="2.6"/>
		</g>
		<g>
			<rect x="82.1" y="150.6" class="st1" width="5.4" height="5.4"/>
			<circle cx="84.8" cy="153.3" r="2.7"/>
		</g>
		<g>
			<rect x="71.9" y="145.9" class="st1" width="4.9" height="4.9"/>
			<circle cx="74.3" cy="148.3" r="2.5"/>
		</g>
		<g>
			<rect x="59.2" y="148.2" class="st1" width="5.4" height="5.4"/>
			<circle cx="61.9" cy="150.9" r="2.7"/>
		</g>
		<g>
			<rect x="48.6" y="143.5" class="st1" width="5.3" height="5.3"/>
			<circle cx="51.3" cy="146.2" r="2.7"/>
		</g>
	</g>
</g>
<g>
	<g>
		<g>
			<rect x="159" y="75.3" class="st1" width="5.7" height="5.7"/>
			<circle cx="161.8" cy="78.2" r="2.8"/>
		</g>
		<g>
			<rect x="151.5" y="79" class="st1" width="5.6" height="5.6"/>
			<circle cx="154.3" cy="81.8" r="2.8"/>
		</g>
		<g>
			<rect x="144.1" y="87.6" class="st1" width="5.6" height="5.6"/>
			<circle cx="146.9" cy="90.4" r="2.8"/>
		</g>
		<g>
			<rect x="136.9" y="91" class="st1" width="5" height="5"/>
			<circle cx="139.4" cy="93.5" r="2.5"/>
		</g>
		<g>
			<rect x="128.3" y="88.5" class="st1" width="5" height="5"/>
			<circle cx="130.8" cy="91" r="2.5"/>
		</g>
		<g>
			<rect x="117.5" y="89.3" class="st1" width="5" height="5"/>
			<circle cx="120" cy="91.8" r="2.5"/>
		</g>
		<g>
			<rect x="104.8" y="91.8" class="st1" width="5.3" height="5.3"/>
			<circle cx="107.5" cy="94.5" r="2.7"/>
		</g>
		<g>
			<rect x="95.9" y="86.9" class="st1" width="5" height="5"/>
			<circle cx="98.4" cy="89.4" r="2.5"/>
		</g>
		<g>
			<rect x="83.5" y="84.9" class="st1" width="5.6" height="5.6"/>
			<circle cx="86.2" cy="87.7" r="2.8"/>
		</g>
		<g>
			<rect x="72.4" y="83.4" class="st1" width="5" height="5"/>
			<circle cx="74.9" cy="85.9" r="2.5"/>
		</g>
	</g>
</g>
<polygon class="st0" points="462.8,172.2 479.1,172.2 442.5,115.9 458.7,115.9 388.3,7.9 318.1,115.9 334.3,115.9 297.6,172.2 
	313.9,172.2 274.9,231.9 295.2,231.9 295.2,246.1 317.5,246.1 459.2,246.1 479.5,246.1 479.5,231.9 501.7,231.9 "/>
<g>
	<g>
		<g>
			<rect x="458.9" y="181.1" class="st1" width="5.3" height="5.3"/>
			<circle cx="461.5" cy="183.7" r="2.6"/>
		</g>
		<g>
			<rect x="454" y="191.1" class="st1" width="5.7" height="5.7"/>
			<circle cx="456.8" cy="193.9" r="2.8"/>
		</g>
		<g>
			<rect x="442" y="195.1" class="st1" width="5.2" height="5.2"/>
			<circle cx="444.6" cy="197.7" r="2.6"/>
		</g>
		<g>
			<rect x="432.9" y="202.4" class="st1" width="5.6" height="5.6"/>
			<circle cx="435.7" cy="205.1" r="2.8"/>
		</g>
		<g>
			<rect x="424.4" y="201.3" class="st1" width="5.5" height="5.5"/>
			<circle cx="427.2" cy="204" r="2.7"/>
		</g>
		<g>
			<rect x="414.6" y="204.5" class="st1" width="5.6" height="5.6"/>
			<circle cx="417.4" cy="207.3" r="2.8"/>
		</g>
		<g>
			<rect x="402" y="205.1" class="st1" width="5.4" height="5.4"/>
			<circle cx="404.7" cy="207.8" r="2.7"/>
		</g>
		<g>
			<rect x="394.8" y="204.7" class="st1" width="5" height="5"/>
			<circle cx="397.3" cy="207.2" r="2.5"/>
		</g>
		<g>
			<rect x="388.7" y="212.4" class="st1" width="5.2" height="5.2"/>
			<circle cx="391.3" cy="215" r="2.6"/>
		</g>
		<g>
			<rect x="378.8" y="208.1" class="st1" width="5.2" height="5.2"/>
			<circle cx="381.4" cy="210.7" r="2.6"/>
		</g>
		<g>
			<rect x="372.3" y="207" class="st1" width="5.1" height="5.1"/>
			<circle cx="374.9" cy="209.6" r="2.6"/>
		</g>
		<g>
			<rect x="365.9" y="212" class="st1" width="5.2" height="5.2"/>
			<circle cx="368.5" cy="214.6" r="2.6"/>
		</g>
		<g>
			<rect x="358.4" y="206.1" class="st1" width="5.4" height="5.4"/>
			<circle cx="361.1" cy="208.8" r="2.7"/>
		</g>
		<g>
			<rect x="348" y="214.7" class="st1" width="5.1" height="5.1"/>
			<circle cx="350.5" cy="217.2" r="2.5"/>
		</g>
		<g>
			<rect x="339.6" y="209.4" class="st1" width="5.4" height="5.4"/>
			<circle cx="342.3" cy="212.1" r="2.7"/>
		</g>
		<g>
			<rect x="327.5" y="213.6" class="st1" width="4.9" height="4.9"/>
			<circle cx="329.9" cy="216.1" r="2.4"/>
		</g>
		<g>
			<rect x="317.5" y="212.6" class="st1" width="5" height="5"/>
			<circle cx="320" cy="215.1" r="2.5"/>
		</g>
		<g>
			<rect x="307.5" y="204.7" class="st1" width="5" height="5"/>
			<circle cx="310.1" cy="207.2" r="2.5"/>
		</g>
		<g>
			<rect x="298.5" y="210.9" class="st1" width="5.4" height="5.4"/>
			<circle cx="301.2" cy="213.6" r="2.7"/>
		</g>
		<g>
			<rect x="287.8" y="207.7" class="st1" width="4.9" height="4.9"/>
			<circle cx="290.2" cy="210.2" r="2.5"/>
		</g>
	</g>
</g>
<g>
	<g>
		<g>
			<rect x="448.8" y="135.5" class="st1" width="5.5" height="5.5"/>
			<circle cx="451.5" cy="138.3" r="2.7"/>
		</g>
		<g>
			<rect x="440.3" y="134.4" class="st1" width="5.7" height="5.7"/>
			<circle cx="443.2" cy="137.3" r="2.8"/>
		</g>
		<g>
			<rect x="431.7" y="144.7" class="st1" width="5" height="5"/>
			<circle cx="434.2" cy="147.2" r="2.5"/>
		</g>
		<g>
			<rect x="422.5" y="143.3" class="st1" width="5.5" height="5.5"/>
			<circle cx="425.2" cy="146.1" r="2.8"/>
		</g>
		<g>
			<rect x="412.4" y="150.1" class="st1" width="4.9" height="4.9"/>
			<circle cx="414.8" cy="152.5" r="2.5"/>
		</g>
		<g>
			<rect x="405.8" y="151.5" class="st1" width="5.3" height="5.3"/>
			<circle cx="408.5" cy="154.1" r="2.7"/>
		</g>
		<g>
			<rect x="393.6" y="151.2" class="st1" width="5.5" height="5.5"/>
			<circle cx="396.3" cy="154" r="2.8"/>
		</g>
		<g>
			<rect x="384.5" y="156.5" class="st1" width="5.5" height="5.5"/>
			<circle cx="387.2" cy="159.2" r="2.7"/>
		</g>
		<g>
			<rect x="373.9" y="153.1" class="st1" width="5.4" height="5.4"/>
			<circle cx="376.7" cy="155.8" r="2.7"/>
		</g>
		<g>
			<rect x="361.5" y="156.4" class="st1" width="5.6" height="5.6"/>
			<circle cx="364.3" cy="159.2" r="2.8"/>
		</g>
		<g>
			<rect x="354.8" y="148.2" class="st1" width="5.1" height="5.1"/>
			<circle cx="357.3" cy="150.8" r="2.6"/>
		</g>
		<g>
			<rect x="345.4" y="150.6" class="st1" width="5.4" height="5.4"/>
			<circle cx="348.1" cy="153.3" r="2.7"/>
		</g>
		<g>
			<rect x="335.2" y="145.9" class="st1" width="4.9" height="4.9"/>
			<circle cx="337.7" cy="148.3" r="2.5"/>
		</g>
		<g>
			<rect x="322.6" y="148.2" class="st1" width="5.4" height="5.4"/>
			<circle cx="325.3" cy="150.9" r="2.7"/>
		</g>
		<g>
			<rect x="311.9" y="143.5" class="st1" width="5.3" height="5.3"/>
			<circle cx="314.6" cy="146.2" r="2.7"/>
		</g>
	</g>
</g>
<g>
	<g>
		<g>
			<rect x="422.3" y="75.3" class="st1" width="5.7" height="5.7"/>
			<circle cx="425.1" cy="78.2" r="2.8"/>
		</g>
		<g>
			<rect x="414.9" y="79" class="st1" width="5.6" height="5.6"/>
			<circle cx="417.7" cy="81.8" r="2.8"/>
		</g>
		<g>
			<rect x="407.4" y="87.6" class="st1" width="5.6" height="5.6"/>
			<circle cx="410.2" cy="90.4" r="2.8"/>
		</g>
		<g>
			<rect x="400.2" y="91" class="st1" width="5" height="5"/>
			<circle cx="402.7" cy="93.5" r="2.5"/>
		</g>
		<g>
			<rect x="391.6" y="88.5" class="st1" width="5" height="5"/>
			<circle cx="394.1" cy="91" r="2.5"/>
		</g>
		<g>
			<rect x="380.8" y="89.3" class="st1" width="5" height="5"/>
			<circle cx="383.3" cy="91.8" r="2.5"/>
		</g>
		<g>
			<rect x="368.1" y="91.8" class="st1" width="5.3" height="5.3"/>
			<circle cx="370.8" cy="94.5" r="2.7"/>
		</g>
		<g>
			<rect x="359.3" y="86.9" class="st1" width="5" height="5"/>
			<circle cx="361.8" cy="89.4" r="2.5"/>
		</g>
		<g>
			<rect x="346.8" y="84.9" class="st1" width="5.6" height="5.6"/>
			<circle cx="349.6" cy="87.7" r="2.8"/>
		</g>
		<g>
			<rect x="335.7" y="83.4" class="st1" width="5" height="5"/>
			<circle cx="338.2" cy="85.9" r="2.5"/>
		</g>
	</g>
</g>
<polygon class="st0" points="724.2,172.2 740.5,172.2 703.9,115.9 720.1,115.9 649.7,7.9 579.5,115.9 595.7,115.9 559,172.2 
	575.3,172.2 536.3,231.9 559.5,231.9 559.5,246.1 578.9,246.1 720.6,246.1 743.8,246.1 743.8,231.9 763.1,231.9 "/>
<circle cx="346" cy="125" r="6"/>
<circle cx="385.7" cy="110.1" r="6"/>
<circle cx="418.5" cy="125" r="6"/>
<circle cx="397.8" cy="46.1" r="6"/>
<circle cx="339.4" cy="178.7" r="6"/>
<circle cx="390.2" cy="190.7" r="6"/>
<circle cx="438.1" cy="161.7" r="6"/>
<circle cx="474.2" cy="218.9" r="6"/>
<circle cx="373.4" cy="64.1" r="6"/>
<text transform="matrix(1 0 0 1 646.6594 221.886)" style="font-family:'Verdana'; font-size:12px;">Your name here</text>
</svg>
