<svg xmlns="http://www.w3.org/2000/svg" viewBox="0 0 600 300" id='svg' width='600mm' height='300mm'>
<style type="text/css">
	.st0{fill:none;stroke:#000000;stroke-miterlimit:10;stroke-width:0.01mm;}
.st1{font-family:'Verdana';}
.st2{font-size:1.5mm;fill:none;stroke:#000000;stroke-width:0.01mm;}
.circle{fill:none;stroke:#000000;stroke-width:0.01mm;}
</style>
<g transform="translate(0.0 0) rotate(0)">
	
<polygon onclick="draw_circ(this)" class="st0" points="66.62,58.29 72.37,58.29 59.42,38.42 65.17,38.42 40.33,0.32 15.53,38.42 21.28,38.42 8.33,58.29 14.04,58.29 0.32,79.35 7.83,79.35 7.83,84.36 15.31,84.36 65.35,84.36 72.83,84.36 72.83,79.35 80.34,79.35"></polygon>

<text id="name_loc" text-anchor="end" transform="matrix(1 0 0 1 75 77)" class="st1 st2">Your name here</text>
<circle onmousedown="del_rect(this)" id="12" class="circle" cx="14.55479004375" cy="69.86299221" r="2.82274716"></circle><circle onmousedown="del_rect(this)" id="13" class="circle" cx="27.52178481" cy="66.42276910875" r="2.82274716"></circle><circle onmousedown="del_rect(this)" id="14" class="circle" cx="38.900984298750004" cy="62.9825460075" r="2.82274716"></circle><circle onmousedown="del_rect(this)" id="15" class="circle" cx="50.54481633375" cy="57.42526253625" r="2.82274716"></circle><circle onmousedown="del_rect(this)" id="16" class="circle" cx="60.07158799875" cy="52.13261161125" r="2.82274716"></circle><circle onmousedown="del_rect(this)" id="17" class="circle" cx="20.6413386075" cy="51.074081426250004" r="2.82274716"></circle><circle onmousedown="del_rect(this)" id="18" class="circle" cx="29.374212633750002" cy="47.1045932325" r="2.82274716"></circle><circle onmousedown="del_rect(this)" id="19" class="circle" cx="39.6948819375" cy="43.13510503875" r="2.82274716"></circle><circle onmousedown="del_rect(this)" id="20" class="circle" cx="47.89849087125" cy="37.84245411375" r="2.82274716"></circle><circle onmousedown="del_rect(this)" id="21" class="circle" cx="56.102099805" cy="31.75590555" r="2.82274716"></circle><circle onmousedown="del_rect(this)" id="22" class="circle" cx="28.580314995000002" cy="29.90347772625" r="2.82274716"></circle><circle onmousedown="del_rect(this)" id="23" class="circle" cx="37.5778215675" cy="25.66935698625" r="2.82274716"></circle><circle onmousedown="del_rect(this)" id="24" class="circle" cx="45.25216540875" cy="20.90597115375" r="2.82274716"></circle>
</g> <g transform="translate(133.7 97.625) rotate(180)">
	
<polygon onclick="draw_circ(this)" class="st0" points="66.62,58.29 72.37,58.29 59.42,38.42 65.17,38.42 40.33,0.32 15.53,38.42 21.28,38.42 8.33,58.29 14.04,58.29 0.32,79.35 7.83,79.35 7.83,84.36 15.31,84.36 65.35,84.36 72.83,84.36 72.83,79.35 80.34,79.35"></polygon>

<text id="name_loc" text-anchor="end" transform="matrix(1 0 0 1 75 77)" class="st1 st2">Your name here</text>
<circle onmousedown="del_rect(this)" id="12" class="circle" cx="14.55479004375" cy="69.86299221" r="2.82274716"></circle><circle onmousedown="del_rect(this)" id="13" class="circle" cx="27.52178481" cy="66.42276910875" r="2.82274716"></circle><circle onmousedown="del_rect(this)" id="14" class="circle" cx="38.900984298750004" cy="62.9825460075" r="2.82274716"></circle><circle onmousedown="del_rect(this)" id="15" class="circle" cx="50.54481633375" cy="57.42526253625" r="2.82274716"></circle><circle onmousedown="del_rect(this)" id="16" class="circle" cx="60.07158799875" cy="52.13261161125" r="2.82274716"></circle><circle onmousedown="del_rect(this)" id="17" class="circle" cx="20.6413386075" cy="51.074081426250004" r="2.82274716"></circle><circle onmousedown="del_rect(this)" id="18" class="circle" cx="29.374212633750002" cy="47.1045932325" r="2.82274716"></circle><circle onmousedown="del_rect(this)" id="19" class="circle" cx="39.6948819375" cy="43.13510503875" r="2.82274716"></circle><circle onmousedown="del_rect(this)" id="20" class="circle" cx="47.89849087125" cy="37.84245411375" r="2.82274716"></circle><circle onmousedown="del_rect(this)" id="21" class="circle" cx="56.102099805" cy="31.75590555" r="2.82274716"></circle><circle onmousedown="del_rect(this)" id="22" class="circle" cx="28.580314995000002" cy="29.90347772625" r="2.82274716"></circle><circle onmousedown="del_rect(this)" id="23" class="circle" cx="37.5778215675" cy="25.66935698625" r="2.82274716"></circle><circle onmousedown="del_rect(this)" id="24" class="circle" cx="45.25216540875" cy="20.90597115375" r="2.82274716"></circle>
</g> <g transform="translate(106.08 0) rotate(0)">
	
<polygon onclick="draw_circ(this)" class="st0" points="66.62,58.29 72.37,58.29 59.42,38.42 65.17,38.42 40.33,0.32 15.53,38.42 21.28,38.42 8.33,58.29 14.04,58.29 0.32,79.35 7.83,79.35 7.83,84.36 15.31,84.36 65.35,84.36 72.83,84.36 72.83,79.35 80.34,79.35"></polygon>

<text id="name_loc" text-anchor="end" transform="matrix(1 0 0 1 75 77)" class="st1 st2">Your name here</text>
<circle onmousedown="del_rect(this)" id="12" class="circle" cx="14.55479004375" cy="69.86299221" r="2.82274716"></circle><circle onmousedown="del_rect(this)" id="13" class="circle" cx="27.52178481" cy="66.42276910875" r="2.82274716"></circle><circle onmousedown="del_rect(this)" id="14" class="circle" cx="38.900984298750004" cy="62.9825460075" r="2.82274716"></circle><circle onmousedown="del_rect(this)" id="15" class="circle" cx="50.54481633375" cy="57.42526253625" r="2.82274716"></circle><circle onmousedown="del_rect(this)" id="16" class="circle" cx="60.07158799875" cy="52.13261161125" r="2.82274716"></circle><circle onmousedown="del_rect(this)" id="17" class="circle" cx="20.6413386075" cy="51.074081426250004" r="2.82274716"></circle><circle onmousedown="del_rect(this)" id="18" class="circle" cx="29.374212633750002" cy="47.1045932325" r="2.82274716"></circle><circle onmousedown="del_rect(this)" id="19" class="circle" cx="39.6948819375" cy="43.13510503875" r="2.82274716"></circle><circle onmousedown="del_rect(this)" id="20" class="circle" cx="47.89849087125" cy="37.84245411375" r="2.82274716"></circle><circle onmousedown="del_rect(this)" id="21" class="circle" cx="56.102099805" cy="31.75590555" r="2.82274716"></circle><circle onmousedown="del_rect(this)" id="22" class="circle" cx="28.580314995000002" cy="29.90347772625" r="2.82274716"></circle><circle onmousedown="del_rect(this)" id="23" class="circle" cx="37.5778215675" cy="25.66935698625" r="2.82274716"></circle><circle onmousedown="del_rect(this)" id="24" class="circle" cx="45.25216540875" cy="20.90597115375" r="2.82274716"></circle>
</g> <g transform="translate(239.78 97.625) rotate(180)">
	
<polygon onclick="draw_circ(this)" class="st0" points="66.62,58.29 72.37,58.29 59.42,38.42 65.17,38.42 40.33,0.32 15.53,38.42 21.28,38.42 8.33,58.29 14.04,58.29 0.32,79.35 7.83,79.35 7.83,84.36 15.31,84.36 65.35,84.36 72.83,84.36 72.83,79.35 80.34,79.35"></polygon>

<text id="name_loc" text-anchor="end" transform="matrix(1 0 0 1 75 77)" class="st1 st2">Your name here</text>
<circle onmousedown="del_rect(this)" id="12" class="circle" cx="14.55479004375" cy="69.86299221" r="2.82274716"></circle><circle onmousedown="del_rect(this)" id="13" class="circle" cx="27.52178481" cy="66.42276910875" r="2.82274716"></circle><circle onmousedown="del_rect(this)" id="14" class="circle" cx="38.900984298750004" cy="62.9825460075" r="2.82274716"></circle><circle onmousedown="del_rect(this)" id="15" class="circle" cx="50.54481633375" cy="57.42526253625" r="2.82274716"></circle><circle onmousedown="del_rect(this)" id="16" class="circle" cx="60.07158799875" cy="52.13261161125" r="2.82274716"></circle><circle onmousedown="del_rect(this)" id="17" class="circle" cx="20.6413386075" cy="51.074081426250004" r="2.82274716"></circle><circle onmousedown="del_rect(this)" id="18" class="circle" cx="29.374212633750002" cy="47.1045932325" r="2.82274716"></circle><circle onmousedown="del_rect(this)" id="19" class="circle" cx="39.6948819375" cy="43.13510503875" r="2.82274716"></circle><circle onmousedown="del_rect(this)" id="20" class="circle" cx="47.89849087125" cy="37.84245411375" r="2.82274716"></circle><circle onmousedown="del_rect(this)" id="21" class="circle" cx="56.102099805" cy="31.75590555" r="2.82274716"></circle><circle onmousedown="del_rect(this)" id="22" class="circle" cx="28.580314995000002" cy="29.90347772625" r="2.82274716"></circle><circle onmousedown="del_rect(this)" id="23" class="circle" cx="37.5778215675" cy="25.66935698625" r="2.82274716"></circle><circle onmousedown="del_rect(this)" id="24" class="circle" cx="45.25216540875" cy="20.90597115375" r="2.82274716"></circle>
</g> <g transform="translate(212.16 0) rotate(0)">
	
<polygon onclick="draw_circ(this)" class="st0" points="66.62,58.29 72.37,58.29 59.42,38.42 65.17,38.42 40.33,0.32 15.53,38.42 21.28,38.42 8.33,58.29 14.04,58.29 0.32,79.35 7.83,79.35 7.83,84.36 15.31,84.36 65.35,84.36 72.83,84.36 72.83,79.35 80.34,79.35"></polygon>

<text id="name_loc" text-anchor="end" transform="matrix(1 0 0 1 75 77)" class="st1 st2">Your name here</text>
<circle onmousedown="del_rect(this)" id="12" class="circle" cx="14.55479004375" cy="69.86299221" r="2.82274716"></circle><circle onmousedown="del_rect(this)" id="13" class="circle" cx="27.52178481" cy="66.42276910875" r="2.82274716"></circle><circle onmousedown="del_rect(this)" id="14" class="circle" cx="38.900984298750004" cy="62.9825460075" r="2.82274716"></circle><circle onmousedown="del_rect(this)" id="15" class="circle" cx="50.54481633375" cy="57.42526253625" r="2.82274716"></circle><circle onmousedown="del_rect(this)" id="16" class="circle" cx="60.07158799875" cy="52.13261161125" r="2.82274716"></circle><circle onmousedown="del_rect(this)" id="17" class="circle" cx="20.6413386075" cy="51.074081426250004" r="2.82274716"></circle><circle onmousedown="del_rect(this)" id="18" class="circle" cx="29.374212633750002" cy="47.1045932325" r="2.82274716"></circle><circle onmousedown="del_rect(this)" id="19" class="circle" cx="39.6948819375" cy="43.13510503875" r="2.82274716"></circle><circle onmousedown="del_rect(this)" id="20" class="circle" cx="47.89849087125" cy="37.84245411375" r="2.82274716"></circle><circle onmousedown="del_rect(this)" id="21" class="circle" cx="56.102099805" cy="31.75590555" r="2.82274716"></circle><circle onmousedown="del_rect(this)" id="22" class="circle" cx="28.580314995000002" cy="29.90347772625" r="2.82274716"></circle><circle onmousedown="del_rect(this)" id="23" class="circle" cx="37.5778215675" cy="25.66935698625" r="2.82274716"></circle><circle onmousedown="del_rect(this)" id="24" class="circle" cx="45.25216540875" cy="20.90597115375" r="2.82274716"></circle>
</g> <g transform="translate(345.86 97.625) rotate(180)">
	
<polygon onclick="draw_circ(this)" class="st0" points="66.62,58.29 72.37,58.29 59.42,38.42 65.17,38.42 40.33,0.32 15.53,38.42 21.28,38.42 8.33,58.29 14.04,58.29 0.32,79.35 7.83,79.35 7.83,84.36 15.31,84.36 65.35,84.36 72.83,84.36 72.83,79.35 80.34,79.35"></polygon>

<text id="name_loc" text-anchor="end" transform="matrix(1 0 0 1 75 77)" class="st1 st2">Your name here</text>
<circle onmousedown="del_rect(this)" id="12" class="circle" cx="14.55479004375" cy="69.86299221" r="2.82274716"></circle><circle onmousedown="del_rect(this)" id="13" class="circle" cx="27.52178481" cy="66.42276910875" r="2.82274716"></circle><circle onmousedown="del_rect(this)" id="14" class="circle" cx="38.900984298750004" cy="62.9825460075" r="2.82274716"></circle><circle onmousedown="del_rect(this)" id="15" class="circle" cx="50.54481633375" cy="57.42526253625" r="2.82274716"></circle><circle onmousedown="del_rect(this)" id="16" class="circle" cx="60.07158799875" cy="52.13261161125" r="2.82274716"></circle><circle onmousedown="del_rect(this)" id="17" class="circle" cx="20.6413386075" cy="51.074081426250004" r="2.82274716"></circle><circle onmousedown="del_rect(this)" id="18" class="circle" cx="29.374212633750002" cy="47.1045932325" r="2.82274716"></circle><circle onmousedown="del_rect(this)" id="19" class="circle" cx="39.6948819375" cy="43.13510503875" r="2.82274716"></circle><circle onmousedown="del_rect(this)" id="20" class="circle" cx="47.89849087125" cy="37.84245411375" r="2.82274716"></circle><circle onmousedown="del_rect(this)" id="21" class="circle" cx="56.102099805" cy="31.75590555" r="2.82274716"></circle><circle onmousedown="del_rect(this)" id="22" class="circle" cx="28.580314995000002" cy="29.90347772625" r="2.82274716"></circle><circle onmousedown="del_rect(this)" id="23" class="circle" cx="37.5778215675" cy="25.66935698625" r="2.82274716"></circle><circle onmousedown="del_rect(this)" id="24" class="circle" cx="45.25216540875" cy="20.90597115375" r="2.82274716"></circle>
</g> <g transform="translate(318.24 0) rotate(0)">
	
<polygon onclick="draw_circ(this)" class="st0" points="66.62,58.29 72.37,58.29 59.42,38.42 65.17,38.42 40.33,0.32 15.53,38.42 21.28,38.42 8.33,58.29 14.04,58.29 0.32,79.35 7.83,79.35 7.83,84.36 15.31,84.36 65.35,84.36 72.83,84.36 72.83,79.35 80.34,79.35"></polygon>

<text id="name_loc" text-anchor="end" transform="matrix(1 0 0 1 75 77)" class="st1 st2">Your name here</text>
<circle onmousedown="del_rect(this)" id="12" class="circle" cx="14.55479004375" cy="69.86299221" r="2.82274716"></circle><circle onmousedown="del_rect(this)" id="13" class="circle" cx="27.52178481" cy="66.42276910875" r="2.82274716"></circle><circle onmousedown="del_rect(this)" id="14" class="circle" cx="38.900984298750004" cy="62.9825460075" r="2.82274716"></circle><circle onmousedown="del_rect(this)" id="15" class="circle" cx="50.54481633375" cy="57.42526253625" r="2.82274716"></circle><circle onmousedown="del_rect(this)" id="16" class="circle" cx="60.07158799875" cy="52.13261161125" r="2.82274716"></circle><circle onmousedown="del_rect(this)" id="17" class="circle" cx="20.6413386075" cy="51.074081426250004" r="2.82274716"></circle><circle onmousedown="del_rect(this)" id="18" class="circle" cx="29.374212633750002" cy="47.1045932325" r="2.82274716"></circle><circle onmousedown="del_rect(this)" id="19" class="circle" cx="39.6948819375" cy="43.13510503875" r="2.82274716"></circle><circle onmousedown="del_rect(this)" id="20" class="circle" cx="47.89849087125" cy="37.84245411375" r="2.82274716"></circle><circle onmousedown="del_rect(this)" id="21" class="circle" cx="56.102099805" cy="31.75590555" r="2.82274716"></circle><circle onmousedown="del_rect(this)" id="22" class="circle" cx="28.580314995000002" cy="29.90347772625" r="2.82274716"></circle><circle onmousedown="del_rect(this)" id="23" class="circle" cx="37.5778215675" cy="25.66935698625" r="2.82274716"></circle><circle onmousedown="del_rect(this)" id="24" class="circle" cx="45.25216540875" cy="20.90597115375" r="2.82274716"></circle>
</g> <g transform="translate(451.93999999999994 97.625) rotate(180)">
	
<polygon onclick="draw_circ(this)" class="st0" points="66.62,58.29 72.37,58.29 59.42,38.42 65.17,38.42 40.33,0.32 15.53,38.42 21.28,38.42 8.33,58.29 14.04,58.29 0.32,79.35 7.83,79.35 7.83,84.36 15.31,84.36 65.35,84.36 72.83,84.36 72.83,79.35 80.34,79.35"></polygon>

<text id="name_loc" text-anchor="end" transform="matrix(1 0 0 1 75 77)" class="st1 st2">Your name here</text>
<circle onmousedown="del_rect(this)" id="12" class="circle" cx="14.55479004375" cy="69.86299221" r="2.82274716"></circle><circle onmousedown="del_rect(this)" id="13" class="circle" cx="27.52178481" cy="66.42276910875" r="2.82274716"></circle><circle onmousedown="del_rect(this)" id="14" class="circle" cx="38.900984298750004" cy="62.9825460075" r="2.82274716"></circle><circle onmousedown="del_rect(this)" id="15" class="circle" cx="50.54481633375" cy="57.42526253625" r="2.82274716"></circle><circle onmousedown="del_rect(this)" id="16" class="circle" cx="60.07158799875" cy="52.13261161125" r="2.82274716"></circle><circle onmousedown="del_rect(this)" id="17" class="circle" cx="20.6413386075" cy="51.074081426250004" r="2.82274716"></circle><circle onmousedown="del_rect(this)" id="18" class="circle" cx="29.374212633750002" cy="47.1045932325" r="2.82274716"></circle><circle onmousedown="del_rect(this)" id="19" class="circle" cx="39.6948819375" cy="43.13510503875" r="2.82274716"></circle><circle onmousedown="del_rect(this)" id="20" class="circle" cx="47.89849087125" cy="37.84245411375" r="2.82274716"></circle><circle onmousedown="del_rect(this)" id="21" class="circle" cx="56.102099805" cy="31.75590555" r="2.82274716"></circle><circle onmousedown="del_rect(this)" id="22" class="circle" cx="28.580314995000002" cy="29.90347772625" r="2.82274716"></circle><circle onmousedown="del_rect(this)" id="23" class="circle" cx="37.5778215675" cy="25.66935698625" r="2.82274716"></circle><circle onmousedown="del_rect(this)" id="24" class="circle" cx="45.25216540875" cy="20.90597115375" r="2.82274716"></circle>

</g> 
</svg>